<?xml version="1.0" standalone="no"?>
<!DOCTYPE svg PUBLIC "-//W3C//DTD SVG 20010904//EN"
 "http://www.w3.org/TR/2001/REC-SVG-20010904/DTD/svg10.dtd">
<svg version="1.0" xmlns="http://www.w3.org/2000/svg"
 width="1536.000000pt" height="1451.000000pt" viewBox="0 0 1536.000000 1451.000000"
 preserveAspectRatio="xMidYMid meet">
<metadata>
Created by potrace 1.16, written by Peter Selinger 2001-2019
</metadata>
<g transform="translate(0.000000,1451.000000) scale(0.100000,-0.100000)"
fill="#000000" stroke="none">
<path d="M12020 14500 c-172 -24 -298 -65 -450 -147 -182 -98 -348 -226 -451
-348 -38 -45 -82 -88 -97 -94 -16 -6 -78 -10 -152 -9 -139 3 -169 -5 -232 -61
-47 -41 -77 -107 -95 -206 -19 -113 -50 -454 -68 -765 -13 -229 -55 -1242 -55
-1330 0 -16 -4 -30 -8 -30 -5 0 -22 93 -40 208 -17 114 -43 246 -57 293 -104
360 -306 597 -646 758 -57 27 -126 56 -152 65 -193 64 -552 40 -794 -54 -180
-69 -351 -207 -490 -396 l-74 -102 -312 -5 c-356 -5 -372 -8 -533 -87 -251
-123 -478 -351 -588 -591 -19 -41 -48 -126 -66 -189 -17 -63 -55 -176 -85
-250 -58 -147 -95 -276 -120 -415 -9 -49 -18 -97 -21 -106 -3 -12 -30 -18
-112 -28 -288 -33 -539 -107 -1039 -305 -342 -136 -346 -135 -596 13 -185 110
-340 192 -742 394 -502 252 -652 340 -1063 621 l-234 160 -60 125 c-115 241
-239 513 -334 733 -52 123 -110 248 -127 278 -46 81 -112 143 -170 159 -136
38 -309 -45 -345 -167 -17 -55 -15 -139 4 -201 8 -29 13 -55 10 -59 -6 -5 -57
25 -251 148 -208 132 -433 230 -529 230 -85 0 -209 -89 -255 -183 -24 -49 -27
-119 -9 -181 18 -62 96 -131 226 -200 61 -33 110 -61 109 -62 -1 -1 -81 7
-177 17 -215 23 -409 27 -468 9 -55 -17 -114 -83 -133 -147 -34 -119 -3 -253
75 -319 54 -47 134 -69 341 -94 557 -70 979 -196 1576 -470 l115 -54 139 -210
c231 -349 355 -507 560 -711 273 -272 524 -434 881 -569 l161 -61 281 -345
c329 -406 481 -586 680 -808 146 -163 181 -207 171 -216 -3 -3 -54 3 -115 14
-407 70 -1045 90 -1426 44 l-148 -18 -132 130 c-73 72 -164 155 -203 186 -211
168 -451 277 -732 330 -102 20 -150 23 -358 23 -289 -1 -430 -22 -665 -102
-407 -138 -782 -477 -934 -844 -44 -108 -90 -270 -118 -419 -29 -155 -32 -433
-5 -560 47 -220 136 -420 261 -587 102 -137 279 -314 376 -377 117 -77 130
-91 130 -147 0 -86 -110 -305 -177 -355 -48 -35 -68 -43 -202 -79 -207 -55
-302 -111 -403 -236 -93 -116 -150 -267 -182 -484 -56 -377 -102 -1392 -77
-1730 29 -405 97 -596 280 -788 188 -196 403 -305 721 -364 79 -15 149 -18
410 -17 346 0 469 13 725 74 412 98 844 300 1375 643 771 498 1206 877 1528
1330 175 246 390 673 532 1052 67 181 90 235 102 235 28 0 201 -101 453 -265
231 -149 367 -212 545 -251 69 -15 127 -19 300 -19 232 0 326 10 543 56 76 16
145 29 155 29 13 0 32 -39 80 -168 99 -267 104 -300 127 -822 45 -1016 124
-1536 331 -2171 143 -440 479 -1145 649 -1362 52 -65 125 -105 208 -114 183
-19 341 130 306 287 -13 57 -90 218 -163 340 -223 370 -472 999 -591 1495
-110 454 -192 1185 -134 1185 15 0 45 -76 106 -265 163 -505 253 -676 578
-1095 290 -375 380 -495 492 -662 121 -179 233 -393 254 -482 6 -28 15 -177
19 -331 8 -308 11 -325 71 -382 118 -110 306 -118 400 -16 73 78 100 191 106
446 3 108 7 197 10 197 2 0 48 -13 102 -29 172 -51 328 -62 584 -41 152 13
229 31 341 81 325 144 612 467 697 784 29 108 32 429 5 575 -46 253 -141 436
-316 610 -187 187 -412 309 -655 356 -121 24 -635 31 -731 11 -225 -48 -460
-215 -621 -441 -34 -47 -101 -164 -149 -261 -49 -96 -91 -175 -94 -174 -11 1
-173 232 -229 327 -171 288 -347 712 -376 905 l-7 47 34 0 c18 0 70 -5 114
-10 181 -23 356 -30 914 -40 853 -14 967 -25 1270 -117 267 -81 488 -174 925
-391 659 -328 839 -394 1065 -395 132 0 260 26 344 70 29 16 96 73 156 133
207 206 248 348 270 915 5 138 12 261 16 273 6 21 11 23 38 17 88 -18 171 -17
226 4 140 52 217 182 184 308 -32 121 -176 355 -358 581 -56 69 -123 153 -150
186 -64 80 -83 125 -91 216 -14 148 23 336 87 449 39 68 144 180 206 219 253
161 568 11 942 -447 97 -118 95 -119 88 34 -3 78 -8 98 -32 139 -37 64 -214
240 -318 317 -326 242 -644 238 -898 -10 -124 -121 -174 -215 -210 -391 -20
-94 -21 -127 -17 -310 3 -144 11 -239 25 -320 67 -376 105 -804 106 -1210 1
-279 -12 -402 -60 -567 -90 -312 -320 -481 -604 -446 -172 22 -344 91 -905
365 -979 478 -1050 496 -2115 528 -427 13 -936 36 -1080 50 -205 20 -269 45
-378 153 -121 118 -261 291 -248 304 3 4 20 -3 36 -15 68 -51 409 -171 540
-191 111 -18 368 -30 825 -41 550 -13 927 -27 1070 -41 379 -36 755 -175 1590
-589 415 -205 517 -250 622 -270 126 -25 244 5 332 86 92 83 109 160 117 539
7 282 -7 742 -26 936 -6 57 -24 183 -40 279 -118 723 -69 985 243 1307 118
121 205 184 305 219 157 54 430 59 578 9 132 -44 300 -150 455 -288 l91 -80
-4 101 c-3 95 -6 103 -34 139 -80 99 -348 251 -529 300 -89 24 -118 27 -265
27 -189 1 -252 -11 -387 -74 -115 -53 -215 -125 -317 -228 -158 -158 -256
-321 -331 -549 -20 -62 -38 -113 -39 -113 -2 0 -95 44 -207 99 -112 54 -284
131 -381 172 -98 40 -189 82 -203 93 l-26 21 92 105 c166 188 407 422 500 483
102 68 217 121 319 150 69 19 101 21 380 20 417 -1 461 -7 1085 -158 216 -52
322 -66 336 -44 17 27 10 87 -13 113 -20 22 -66 35 -338 100 -482 114 -704
150 -1000 162 -304 13 -498 -23 -715 -131 -206 -103 -376 -243 -603 -499 -157
-175 -322 -377 -317 -386 3 -4 51 -25 107 -45 176 -64 863 -373 933 -419 19
-12 24 -31 34 -123 7 -59 14 -122 17 -140 2 -17 0 -34 -5 -37 -5 -4 -61 21
-123 54 -329 175 -512 261 -907 425 -968 400 -1248 598 -1550 1100 -60 98
-392 754 -422 832 -7 18 0 28 44 66 71 61 128 98 138 91 5 -3 92 -173 194
-377 101 -205 214 -421 250 -482 173 -287 337 -449 630 -626 154 -92 330 -179
365 -179 57 0 158 90 358 320 277 319 380 419 546 535 171 118 394 211 636
263 115 24 143 26 345 26 201 0 235 -3 395 -31 96 -17 328 -66 515 -108 467
-105 495 -106 495 -25 0 73 -34 86 -475 185 -563 125 -741 150 -1015 142 -210
-6 -322 -27 -527 -95 -376 -126 -670 -355 -1109 -864 -86 -101 -161 -185 -166
-186 -13 -6 -215 105 -310 170 -113 77 -284 224 -371 318 -107 116 -183 241
-348 570 -176 353 -289 589 -289 602 0 6 29 75 65 154 151 333 199 566 226
1099 12 243 7 1016 -11 1510 -19 508 -24 1519 -10 1801 7 145 16 264 20 264 3
0 36 -44 72 -97 125 -184 249 -309 423 -425 170 -113 390 -202 600 -244 135
-28 415 -25 551 4 580 125 998 530 1089 1056 19 113 19 308 0 422 -73 430
-367 770 -853 989 -142 64 -332 128 -444 150 -97 19 -364 28 -458 15z m253
-167 c-40 -2 -106 -2 -145 0 -40 1 -8 3 72 3 80 0 112 -2 73 -3z m-343 -22 c0
-8 -52 -30 -107 -46 -40 -11 -25 15 20 35 44 21 87 26 87 11z m667 -23 c29
-10 62 -28 75 -38 l23 -19 -43 10 c-60 13 -172 59 -172 71 0 12 47 2 117 -24z
m-847 -36 c0 -7 -123 -72 -136 -72 -10 0 50 46 81 63 33 18 55 21 55 9z m1086
-59 c61 -30 87 -53 60 -53 -18 0 -100 40 -131 64 -34 26 8 20 71 -11z m-1266
-37 c0 -2 -49 -40 -109 -85 -122 -90 -164 -134 -259 -268 -65 -93 -90 -116
-71 -66 16 44 99 153 177 235 91 95 262 215 262 184z m814 -16 c220 -43 543
-180 701 -297 303 -226 422 -556 330 -919 -56 -220 -186 -415 -362 -540 -272
-196 -724 -247 -1069 -123 -237 86 -523 342 -657 589 -119 218 -139 465 -56
694 61 167 141 285 250 368 85 65 261 167 340 198 135 54 338 66 523 30z m743
-100 c106 -61 351 -320 409 -432 49 -95 19 -71 -73 60 -77 110 -235 273 -337
350 -77 58 -77 67 1 22z m-2230 -312 c13 -10 14 -31 9 -128 -13 -222 -36 -829
-47 -1245 -13 -459 -8 -964 17 -1875 19 -689 14 -1447 -10 -1690 -53 -513
-170 -819 -395 -1032 -42 -40 -102 -88 -133 -106 -225 -133 -488 -118 -684 41
-64 51 -84 84 -84 133 0 35 26 209 36 243 3 9 44 -25 117 -96 136 -134 166
-148 307 -148 88 0 101 3 163 33 120 59 216 173 308 366 128 268 147 504 127
1571 -17 876 -17 2734 0 3045 30 544 69 840 116 879 37 31 121 36 153 9z
m2722 -388 c0 -14 -4 -34 -9 -45 -6 -14 -9 -3 -9 40 -1 42 2 56 9 45 5 -8 9
-26 9 -40z m31 -192 c0 -15 -4 -30 -10 -33 -6 -4 -10 12 -10 42 0 35 3 44 10
33 5 -8 10 -27 10 -42z m-61 -312 c-11 -32 -22 -56 -24 -54 -3 3 24 171 33
208 5 17 8 6 10 -36 2 -44 -3 -77 -19 -118z m-2392 -76 c36 -63 83 -141 105
-172 45 -67 35 -77 -15 -15 -62 76 -187 296 -187 328 1 21 22 -10 97 -141z
m2350 -60 c-12 -60 -122 -220 -230 -336 -92 -99 -300 -232 -451 -289 -133 -50
-99 -18 64 61 91 44 191 97 223 117 119 76 286 271 350 408 33 72 54 90 44 39z
m-4164 -13 c-12 -5 -34 -6 -50 -2 l-28 8 25 6 c14 4 36 5 50 2 24 -4 24 -4 3
-14z m-280 1 c-21 -7 -44 -7 -70 0 -36 9 -34 10 32 10 62 0 66 -1 38 -10z
m-178 -17 c5 -10 -93 -51 -122 -51 -30 0 7 29 56 44 57 18 59 18 66 7z m-7014
-36 c56 -30 101 -114 249 -470 48 -115 118 -274 154 -353 37 -79 66 -149 64
-157 -4 -17 -220 69 -271 108 -44 33 -97 137 -225 437 -147 345 -149 359 -80
412 55 41 67 44 109 23z m6808 -41 c-7 -9 -50 -45 -94 -80 -95 -74 -205 -187
-266 -273 -23 -33 -45 -59 -47 -56 -2 2 9 28 25 57 33 63 220 255 312 322 64
46 95 60 70 30z m1020 -38 c129 -84 328 -282 306 -304 -3 -3 -60 51 -127 120
-94 96 -144 138 -210 178 -49 29 -88 55 -88 58 0 12 61 -14 119 -52z m-8781
-2 c194 -77 592 -339 750 -494 90 -87 150 -190 113 -190 -26 0 -191 58 -316
111 -143 60 -162 70 -371 195 -65 39 -168 97 -227 128 -122 65 -177 108 -177
139 0 35 40 107 68 122 40 21 86 18 160 -11z m8457 -58 c116 -39 232 -99 297
-153 159 -132 266 -344 319 -628 31 -161 34 -503 6 -605 -41 -155 -144 -308
-274 -413 -171 -136 -286 -177 -498 -178 -207 0 -332 34 -472 129 -208 143
-337 366 -395 682 -28 156 -31 461 -5 564 42 167 109 289 216 397 90 89 185
147 309 189 122 41 179 49 307 46 88 -2 126 -8 190 -30z m2267 -261 c43 -25
138 -73 210 -106 147 -66 176 -85 113 -75 -102 18 -419 203 -532 312 l-58 55
94 -70 c52 -38 130 -90 173 -116z m-1572 -101 c0 -8 -4 -14 -10 -14 -11 0 -40
53 -40 72 1 18 50 -39 50 -58z m-2301 -16 c-23 -6 -48 -6 -70 0 -30 9 -26 10
36 10 63 0 67 -1 34 -10z m-206 -19 c-12 -12 -108 -39 -143 -39 -24 0 -24 0
-5 14 31 21 77 34 120 35 27 1 36 -2 28 -10z m427 -9 c-8 -5 -24 -10 -35 -10
-11 0 -27 5 -35 10 -11 7 -1 10 35 10 36 0 46 -3 35 -10z m231 -47 c-6 -21
-18 -47 -26 -58 -15 -19 -16 -17 -10 25 6 46 35 104 42 83 2 -6 -1 -29 -6 -50z
m-873 -2 c-7 -20 -318 -231 -318 -216 0 9 153 127 229 177 72 47 96 57 89 39z
m4817 -11 c-3 -5 -21 -10 -40 -10 -19 0 -37 5 -40 10 -4 6 12 10 40 10 28 0
44 -4 40 -10z m475 0 c0 -5 -20 -10 -44 -10 -25 0 -48 5 -51 10 -4 6 13 10 44
10 28 0 51 -4 51 -10z m-210 -30 c10 -7 -8 -10 -60 -10 -52 0 -70 3 -60 10 8
5 35 10 60 10 25 0 52 -5 60 -10z m-11858 -16 c315 -40 780 -147 1048 -240
385 -134 738 -308 1080 -532 676 -442 923 -683 1850 -1807 450 -547 612 -730
889 -1005 363 -361 616 -555 1061 -815 596 -347 717 -493 1189 -1435 438 -875
498 -1131 556 -2385 38 -817 63 -1083 136 -1450 126 -627 343 -1215 647 -1750
118 -209 142 -261 142 -316 0 -60 -23 -81 -93 -86 -39 -3 -60 1 -83 16 -41 25
-118 143 -234 355 -343 627 -573 1328 -674 2054 -42 300 -58 528 -81 1172 -25
695 -56 987 -140 1320 -128 507 -561 1391 -896 1832 -142 186 -205 234 -654
503 -270 162 -364 224 -540 355 -394 295 -757 676 -1440 1515 -547 671 -1058
1215 -1400 1488 -182 146 -506 347 -774 481 -471 236 -959 386 -1527 470 -279
42 -356 61 -372 93 -28 55 -19 152 16 172 25 15 154 13 294 -5z m9558 -44 c0
-16 -4 -32 -10 -35 -6 -4 -10 10 -10 35 0 25 4 39 10 35 6 -3 10 -19 10 -35z
m-2264 -5 c49 -9 97 -18 107 -21 15 -5 17 -23 17 -202 0 -370 64 -709 171
-912 46 -86 151 -220 270 -344 60 -63 109 -118 109 -123 0 -20 -267 -282 -328
-323 -134 -88 -316 -166 -482 -205 -77 -17 -212 -19 -296 -4 -186 34 -393 164
-499 314 -116 163 -168 332 -167 540 1 135 24 229 83 346 59 118 85 194 93
269 25 225 231 479 492 606 145 71 265 87 430 59z m304 -85 c0 -27 -4 -50 -10
-50 -5 0 -10 23 -10 50 0 28 5 50 10 50 6 0 10 -22 10 -50z m1988 -137 l-4
-38 -8 38 c-5 20 -5 54 0 75 l8 37 4 -37 c2 -21 2 -55 0 -75z m-3182 10 c-22
-42 -105 -143 -117 -143 -14 0 16 49 74 121 51 62 70 72 43 22z m1193 -215
c-1 -95 -2 -99 -11 -55 -9 42 -3 157 8 157 2 0 3 -46 3 -102z m2023 40 c-2
-10 -8 -18 -13 -18 -11 0 -12 54 -2 64 10 10 21 -24 15 -46z m-3355 -47 c-4
-17 -14 -47 -23 -68 -16 -35 -18 -36 -22 -14 -4 28 25 111 40 111 6 0 8 -12 5
-29z m3391 -146 c0 -22 -4 -51 -8 -65 -5 -17 -8 3 -8 60 0 56 2 78 8 65 5 -11
8 -38 8 -60z m-3443 -28 c12 -46 -31 -175 -68 -206 -11 -8 -8 6 9 46 13 32 24
72 24 89 0 77 23 121 35 71z m1415 -73 c0 -27 -4 -43 -10 -39 -5 3 -10 24 -10
46 0 21 5 39 10 39 6 0 10 -21 10 -46z m1990 -131 c0 -35 -3 -44 -10 -33 -16
25 -11 80 7 80 2 0 3 -21 3 -47z m204 -35 c29 -356 49 -2214 27 -2405 -29
-247 -100 -434 -210 -555 -70 -76 -166 -144 -217 -154 -73 -14 -193 75 -248
185 -55 108 -78 217 -146 701 -66 471 -160 750 -384 1139 -51 90 -73 137 -65
141 6 4 50 11 97 14 215 18 463 106 651 230 77 52 209 185 262 266 74 112 153
297 194 453 10 37 21 67 25 67 4 0 11 -37 14 -82z m-2162 50 c6 -18 -3 -58
-13 -58 -5 0 -9 16 -9 35 0 34 14 48 22 23z m-1552 -100 c0 -28 -41 -98 -47
-81 -5 13 32 103 41 103 3 0 6 -10 6 -22z m1607 -65 c16 -39 17 -53 3 -53 -12
0 -49 76 -50 99 0 22 31 -8 47 -46z m1873 30 c0 -10 -10 -34 -22 -53 -27 -43
-37 -20 -14 34 16 38 36 48 36 19z m-3540 -138 c0 -19 -4 -35 -10 -35 -5 0
-10 16 -10 35 0 19 5 35 10 35 6 0 10 -16 10 -35z m1767 -90 c27 -33 97 -109
154 -169 75 -79 94 -104 70 -90 -75 42 -231 217 -281 314 -15 31 -6 22 57 -55z
m-5699 -37 c59 -39 130 -89 157 -112 268 -217 892 -832 857 -844 -16 -5 -131
45 -217 95 -275 158 -712 588 -881 864 -34 56 -39 69 -29 69 3 0 54 -32 113
-72z m7382 58 c0 -42 -227 -261 -324 -311 l-51 -27 45 38 c25 21 108 100 185
176 77 76 141 138 143 138 1 0 2 -6 2 -14z m-3480 -117 c0 -44 -4 -68 -10 -64
-18 11 -12 135 7 135 2 0 3 -32 3 -71z m-2542 -223 c332 -167 467 -245 702
-401 323 -216 539 -395 861 -715 236 -234 328 -337 454 -505 183 -244 300
-481 366 -738 20 -81 59 -279 59 -304 0 -21 -160 82 -212 137 -36 38 -55 72
-83 147 -139 369 -372 701 -788 1121 -330 333 -607 556 -945 759 -258 155
-365 245 -564 472 -103 117 -136 161 -123 161 3 0 126 -60 273 -134z m2361
-15 c18 -18 42 -104 56 -203 6 -37 4 -48 -6 -48 -8 0 -66 -5 -129 -10 -236
-21 -433 -70 -823 -205 -120 -41 -226 -75 -235 -75 -19 1 -192 135 -192 150 0
22 156 88 485 206 466 168 790 239 844 185z m211 -36 c0 -25 -4 -45 -10 -45
-11 0 -14 73 -3 83 11 12 13 8 13 -38z m2990 9 c-13 -15 -73 -44 -91 -44 -20
0 -7 17 29 38 45 26 81 30 62 6z m-150 -53 c0 -6 -4 -12 -10 -16 -13 -8 -61 5
-54 16 7 12 64 12 64 0z m-412 -12 c-17 -7 -38 -7 -60 0 -30 8 -28 9 27 9 50
0 56 -1 33 -9z m252 -29 c-18 -12 -88 -12 -115 0 -14 6 4 9 55 9 52 1 70 -2
60 -9z m-677 -172 c-41 -73 -308 -319 -394 -363 -57 -30 -27 3 84 93 61 50
159 138 217 196 58 58 106 106 108 106 2 0 -5 -14 -15 -32z m298 -5 c79 -90
229 -353 322 -563 120 -273 185 -502 194 -685 l5 -120 -52 75 c-29 41 -78 104
-109 140 -31 36 -66 79 -78 95 -32 47 -98 181 -134 275 -51 135 -130 297 -228
468 -50 87 -91 166 -91 176 0 42 95 176 125 176 7 0 28 -17 46 -37z m-2061
-196 c108 -100 177 -151 303 -224 62 -36 114 -67 117 -70 18 -20 -77 15 -135
49 -157 92 -395 291 -395 330 0 13 16 1 110 -85z m-333 54 c23 -11 98 -74 172
-145 149 -143 290 -255 371 -296 153 -77 353 -123 528 -122 142 0 146 -2 219
-106 l42 -60 -97 -68 c-202 -143 -445 -347 -603 -505 -236 -237 -382 -568
-404 -920 -8 -120 -17 -145 -40 -115 -29 38 -55 128 -94 325 -77 383 -157 565
-393 893 -147 206 -290 370 -547 630 l-253 257 58 26 c76 34 353 129 469 160
231 63 488 84 572 46z m2160 -232 c94 -156 252 -483 240 -496 -2 -2 -35 8 -72
22 -38 15 -129 42 -203 61 -74 19 -150 43 -168 55 -51 31 -132 126 -145 169
-10 34 -9 42 11 69 38 54 251 215 274 208 6 -2 34 -42 63 -88z m-691 -78 c-9
-13 -95 -41 -128 -41 -41 0 -26 17 30 34 54 17 106 20 98 7z m-566 -61 c0 -5
-21 -10 -46 -10 -27 0 -43 4 -39 10 3 6 24 10 46 10 21 0 39 -4 39 -10z m345
0 c4 -6 -12 -10 -39 -10 -25 0 -46 5 -46 10 0 6 18 10 39 10 22 0 43 -4 46
-10z m-190 -30 c4 -6 -12 -10 -40 -10 -28 0 -44 4 -40 10 3 6 21 10 40 10 19
0 37 -4 40 -10z m-2810 -69 c87 -39 254 -179 461 -385 351 -351 592 -660 739
-946 l57 -113 -60 42 c-93 66 -240 201 -427 392 -378 387 -801 875 -848 976
-7 16 -6 27 3 38 16 19 26 19 75 -4z m3413 -30 c20 -21 44 -51 52 -65 12 -24
12 -28 0 -36 -19 -12 -100 -29 -172 -37 -52 -5 -58 -4 -81 21 -39 42 -59 88
-43 104 22 22 110 51 159 52 42 0 51 -4 85 -39z m225 -288 c-23 -2 -64 -2 -90
0 -26 2 -7 3 42 3 50 0 71 -1 48 -3z m257 -22 c0 -6 -4 -12 -10 -16 -13 -8
-61 5 -54 16 7 12 64 12 64 0z m-827 -135 c-9 -17 -277 -241 -343 -288 l-45
-31 30 32 c54 59 345 301 362 301 2 0 0 -6 -4 -14z m670 -31 c281 -49 477
-192 612 -448 69 -129 86 -193 86 -311 -1 -225 -53 -432 -151 -599 -22 -38
-84 -126 -138 -195 -55 -70 -127 -170 -162 -222 -143 -215 -302 -335 -519
-391 -116 -31 -296 -28 -426 5 -266 69 -483 242 -600 479 -59 120 -85 224 -92
368 -12 235 42 422 175 609 92 129 301 321 533 488 285 205 449 258 682 217z
m633 -133 c-9 -9 -106 92 -106 110 0 7 26 -13 56 -45 31 -32 53 -61 50 -65z
m-1752 -194 c-11 -13 -66 -75 -121 -138 -101 -114 -174 -189 -158 -160 31 56
270 320 289 320 5 0 1 -10 -10 -22z m-5341 -25 c-40 -2 -107 -2 -150 0 -43 1
-10 3 72 3 83 0 118 -2 78 -3z m-413 -23 c0 -5 -18 -10 -40 -10 -22 0 -40 5
-40 10 0 6 18 10 40 10 22 0 40 -4 40 -10z m725 0 c4 -6 -13 -10 -44 -10 -28
0 -51 5 -51 10 0 6 20 10 44 10 25 0 48 -4 51 -10z m-865 -30 c0 -5 -16 -10
-35 -10 -19 0 -35 5 -35 10 0 6 16 10 35 10 19 0 35 -4 35 -10z m1028 -10 c44
-20 59 -46 20 -35 -56 16 -108 38 -108 46 0 15 43 10 88 -11z m-1284 -65 c-10
-8 -66 -45 -124 -82 -282 -178 -393 -289 -525 -523 -64 -114 -95 -157 -95
-131 0 41 150 282 236 380 94 106 292 257 446 341 70 38 102 45 62 15z m1476
-16 c79 -43 218 -139 246 -170 32 -35 8 -29 -47 12 -30 22 -102 69 -160 105
-153 92 -180 130 -39 53z m-503 -45 c149 -22 262 -56 388 -119 138 -68 254
-155 378 -284 157 -164 233 -284 284 -448 26 -85 27 -96 27 -318 0 -177 -4
-252 -18 -325 -47 -255 -145 -440 -326 -620 -274 -273 -668 -405 -1121 -378
-416 25 -811 224 -1029 519 -104 139 -207 390 -232 564 -20 143 18 382 104
642 50 153 122 268 242 387 203 201 482 337 780 381 129 18 396 18 523 -1z
m7183 -119 c0 -19 -4 -35 -10 -35 -5 0 -10 16 -10 35 0 19 5 35 10 35 6 0 10
-16 10 -35z m-6238 -193 c39 -51 69 -95 66 -98 -11 -10 -188 209 -188 232 0
15 54 -44 122 -134z m3868 23 c0 -24 -43 -102 -48 -87 -5 17 27 102 39 102 5
0 9 -7 9 -15z m2370 -41 c0 -27 -4 -43 -10 -39 -17 11 -11 85 7 85 2 0 3 -21
3 -46z m-5030 -104 c257 -12 372 -25 527 -55 548 -110 720 -320 815 -995 8
-63 13 -197 12 -400 0 -259 -3 -330 -23 -470 -30 -226 -66 -410 -80 -419 -23
-15 -222 -33 -235 -21 -11 8 -9 29 10 106 80 330 104 835 59 1219 -58 492
-204 673 -596 739 -161 27 -318 36 -804 46 -258 6 -473 14 -476 18 -6 7 -79
188 -79 197 0 2 19 9 42 15 97 27 491 36 828 20z m2600 -30 c0 -16 -4 -32 -10
-35 -6 -4 -10 10 -10 35 0 25 4 39 10 35 6 -3 10 -19 10 -35z m2400 -95 c0
-19 -4 -35 -10 -35 -5 0 -10 16 -10 35 0 19 5 35 10 35 6 0 10 -16 10 -35z
m-5974 -102 c14 -54 -6 -42 -39 24 -21 40 -37 75 -37 79 0 14 71 -82 76 -103z
m3544 -51 c0 -37 -5 -74 -10 -82 -7 -10 -10 13 -10 73 0 56 4 86 10 82 6 -3
10 -36 10 -73z m-2620 -132 c698 -28 847 -89 934 -380 64 -213 75 -818 21
-1206 -12 -87 -81 -425 -88 -429 -11 -8 -581 -275 -582 -273 -2 2 -18 28 -36
58 -142 235 -367 417 -655 530 -203 79 -374 110 -612 110 l-144 0 19 24 c10
13 58 73 106 132 158 195 258 392 317 627 40 159 52 282 54 560 l1 242 40 6
c64 10 371 9 625 -1z m-3860 -50 c0 -14 -5 -32 -10 -40 -7 -11 -10 1 -10 40 0
39 3 51 10 40 5 -8 10 -26 10 -40z m9056 -36 c146 -90 173 -104 244 -125 84
-25 207 -30 390 -15 l105 8 100 -203 c423 -871 628 -1135 1094 -1413 161 -95
219 -140 272 -212 63 -85 118 -107 274 -109 90 -1 130 -6 163 -19 23 -10 42
-22 42 -27 0 -6 -144 -9 -362 -7 -349 3 -365 2 -425 -18 -176 -61 -407 -269
-458 -414 -31 -88 -9 -293 60 -555 44 -168 76 -257 137 -378 l49 -99 -548 7
c-617 7 -1087 20 -1249 35 -213 20 -382 57 -534 117 -107 42 -470 221 -470
231 0 5 -13 103 -30 217 -16 114 -27 211 -24 216 15 25 176 -4 323 -57 53 -19
143 -46 201 -60 57 -14 206 -58 330 -99 389 -128 538 -158 795 -159 374 -2
595 87 775 313 104 130 153 265 154 421 0 204 -67 346 -257 548 -127 136 -142
163 -156 283 -18 159 -81 302 -195 445 -190 238 -432 349 -832 384 -255 23
-524 -15 -686 -96 -26 -13 -52 -24 -59 -24 -6 0 24 32 66 72 98 91 216 239
362 453 185 270 264 375 283 375 3 0 33 -16 66 -36z m-3600 -92 c124 -82 175
-125 199 -171 7 -15 26 -75 40 -132 92 -363 281 -683 790 -1339 257 -330 435
-589 435 -632 0 -21 -30 -30 -194 -58 -70 -12 -163 -20 -230 -20 -213 0 -339
51 -686 280 -177 116 -389 235 -471 263 -15 5 -15 15 6 114 59 272 81 571 72
968 -7 297 -24 463 -67 649 -32 140 -34 156 -22 156 5 0 62 -35 128 -78z
m-5494 -54 c-9 -32 -10 -31 -10 22 -1 46 1 52 10 33 8 -16 8 -32 0 -55z m3065
-211 c-1 -45 -3 -5 -3 88 0 94 2 130 3 82 2 -48 2 -125 0 -170z m5643 233
c-17 -31 -189 -207 -190 -193 0 23 174 213 196 213 2 0 0 -9 -6 -20z m-8737
-302 c-10 -50 -10 -47 -10 52 0 99 0 102 10 53 7 -36 7 -70 0 -105z m6041 25
c114 -66 198 -154 275 -288 82 -142 200 -316 400 -590 179 -246 236 -336 320
-510 74 -151 167 -383 182 -453 10 -47 9 -56 -7 -73 -9 -10 -22 -19 -28 -18
-6 0 -64 81 -129 179 -100 153 -249 357 -577 790 -256 338 -560 873 -560 985
0 38 31 32 124 -22z m2471 -32 c-31 -56 -75 -104 -75 -80 0 25 87 145 98 135
2 -3 -8 -27 -23 -55z m-105 -150 c0 -13 -60 -63 -132 -112 -72 -48 -64 -37 42
55 74 65 90 75 90 57z m-8370 -46 c0 -11 -5 -27 -10 -35 -7 -11 -10 -1 -10 35
0 36 3 46 10 35 5 -8 10 -24 10 -35z m3005 -122 c-76 -227 -242 -482 -403
-619 -137 -118 -381 -270 -419 -262 -9 2 43 38 116 81 159 95 247 164 364 286
156 162 273 368 322 567 29 116 39 134 43 72 2 -30 -6 -73 -23 -125z m5109
-24 c-11 -19 -97 -69 -118 -69 -27 0 -11 15 51 51 51 29 79 36 67 18z m-899
-50 c19 -19 19 -19 -1 -19 -11 0 -31 12 -45 26 l-24 26 25 -7 c14 -4 34 -16
45 -26z m-7133 -61 c70 -129 85 -203 20 -94 -39 63 -76 156 -63 156 5 0 24
-28 43 -62z m7278 22 c0 -5 -16 -10 -35 -10 -19 0 -35 5 -35 10 0 6 16 10 35
10 19 0 35 -4 35 -10z m145 -30 c4 -6 -12 -10 -40 -10 -28 0 -44 4 -40 10 3 6
21 10 40 10 19 0 37 -4 40 -10z m325 0 c0 -5 -16 -10 -35 -10 -19 0 -35 5 -35
10 0 6 16 10 35 10 19 0 35 -4 35 -10z m1130 -10 c-25 -4 -65 -4 -90 0 -37 6
-28 8 45 8 73 0 82 -2 45 -8z m-265 -19 c17 -7 16 -8 -9 -15 -35 -9 -75 2 -55
15 17 10 37 10 64 0z m-560 -83 c-178 -189 -203 -284 -214 -808 -4 -190 -11
-353 -16 -363 -20 -46 -91 -36 -124 16 -11 18 -42 88 -69 157 -61 152 -217
499 -337 748 -49 100 -85 185 -82 188 3 3 144 10 314 14 169 5 328 14 352 20
24 6 87 33 140 60 53 27 100 50 105 50 4 0 -26 -37 -69 -82z m1092 70 c-18 -6
-40 -7 -65 0 -35 9 -33 10 28 10 55 0 61 -1 37 -10z m-687 -17 c0 -4 -42 -30
-92 -57 -110 -58 -207 -145 -269 -241 -28 -42 -45 -61 -47 -51 -7 37 84 153
188 242 79 67 220 136 220 107z m867 -16 c44 -18 44 -39 1 -29 -48 10 -98 36
-91 46 6 11 39 4 90 -17z m229 -123 c52 -38 150 -145 169 -185 12 -25 2 -17
-43 32 -33 35 -88 90 -123 122 -67 61 -69 79 -3 31z m-558 -3 c300 -32 494
-142 585 -329 57 -116 68 -174 74 -372 l6 -176 114 -56 c176 -86 258 -174 283
-304 28 -147 -74 -332 -221 -402 -93 -44 -174 -53 -408 -47 -228 6 -319 22
-529 92 -331 112 -547 269 -647 470 -68 137 -79 202 -80 450 0 202 2 227 24
302 51 181 160 296 334 352 87 29 303 38 465 20z m-8573 -310 c33 -25 95 -69
138 -98 43 -29 76 -55 73 -58 -10 -10 -111 47 -192 108 -94 70 -254 226 -297
289 -23 34 1 15 94 -75 68 -67 151 -141 184 -166z m7615 12 c0 -17 -4 -33 -10
-36 -6 -4 -10 8 -10 29 0 20 5 36 10 36 6 0 10 -13 10 -29z m1749 -5 c22 -34
29 -82 11 -71 -12 7 -34 49 -44 83 -11 33 9 27 33 -12z m-1779 -184 c0 -31 -5
-64 -10 -72 -7 -10 -10 9 -10 63 0 50 4 76 10 72 6 -3 10 -32 10 -63z m-7231
-29 l26 -18 -23 -3 c-24 -4 -83 26 -89 45 -6 16 50 0 86 -24z m9058 -130 c-2
-32 -3 -6 -3 57 0 63 1 89 3 58 2 -32 2 -84 0 -115z m-6957 87 c0 -5 -13 -10
-29 -10 -17 0 -33 5 -36 10 -4 6 8 10 29 10 20 0 36 -4 36 -10z m-1860 -29 c0
-13 -20 -18 -47 -13 -36 7 -27 22 12 22 19 0 35 -4 35 -9z m915 0 c6 -11 -22
-19 -47 -13 -10 2 -18 8 -18 13 0 12 57 12 65 0z m765 2 c25 -7 25 -7 -5 -13
-16 -3 -43 -4 -60 -1 -26 3 -27 5 -10 12 26 10 44 10 75 2z m380 0 c25 -7 25
-7 -5 -13 -41 -8 -91 0 -74 11 17 11 45 11 79 2z m-1925 -32 c17 -7 16 -8 -9
-15 -15 -4 -37 -4 -49 0 -22 7 -22 7 -2 15 25 10 35 10 60 0z m1365 0 c0 -10
-75 -43 -149 -65 -65 -19 -64 -19 -55 -5 8 14 104 57 153 68 49 12 51 12 51 2z
m705 0 c3 -5 1 -12 -4 -16 -14 -8 -62 5 -55 16 7 12 51 12 59 0z m-1435 -11
c-18 -12 -58 -12 -85 0 -14 6 -3 9 40 9 42 1 56 -2 45 -9z m1550 -30 c43 -22
59 -40 35 -40 -22 0 -95 38 -95 50 0 15 17 12 60 -10z m-1815 0 c-28 -12 -197
-12 -215 0 -10 7 26 10 110 9 79 0 118 -4 105 -9z m-697 -84 c59 -30 56 -86
-12 -236 -60 -134 -122 -225 -210 -307 -83 -78 -161 -120 -281 -153 -288 -80
-347 -145 -389 -432 -50 -344 -93 -1448 -67 -1738 7 -74 17 -157 23 -185 39
-189 210 -353 454 -434 160 -54 302 -73 534 -74 216 -1 318 8 516 48 505 102
1044 375 1775 900 712 512 1068 930 1363 1605 79 182 125 253 189 297 47 32
204 90 214 79 7 -7 -80 -244 -165 -446 -335 -794 -772 -1282 -1717 -1916 -691
-463 -1198 -695 -1715 -783 -163 -28 -404 -44 -545 -37 -424 23 -698 114 -891
299 -173 164 -263 372 -284 657 -29 401 13 1329 81 1793 52 356 160 487 464
566 161 42 197 61 285 150 110 111 148 184 206 393 4 15 11 14 73 -6 37 -13
81 -31 99 -40z m2222 -32 c160 -33 345 -109 471 -194 145 -99 294 -323 378
-566 40 -119 41 -187 1 -343 -84 -332 -187 -522 -392 -717 -381 -363 -930
-482 -1334 -288 -206 98 -442 336 -544 548 -69 144 -85 223 -85 436 0 212 11
271 75 405 138 287 560 599 958 709 138 38 315 42 472 10z m534 -15 c77 -47
179 -132 217 -181 l34 -43 -60 51 c-33 28 -104 85 -158 128 -105 81 -115 95
-33 45z m-1519 -19 c-9 -15 -375 -291 -393 -296 -40 -13 220 197 358 288 28
19 44 23 35 8z m5945 -48 c0 -26 -5 -54 -10 -62 -7 -10 -10 5 -10 53 0 43 4
66 10 62 6 -3 10 -27 10 -53z m-6280 41 c0 -3 -60 -67 -133 -142 -230 -235
-343 -447 -393 -731 -24 -142 -15 -399 19 -535 137 -538 545 -942 1077 -1066
124 -29 344 -36 490 -15 63 9 130 16 150 16 l35 -1 -40 -35 c-62 -53 -305
-214 -455 -300 -309 -176 -662 -342 -895 -419 -233 -77 -259 -80 -685 -80
-428 0 -408 -3 -602 96 -177 91 -224 143 -255 280 -14 62 -17 127 -16 394 1
329 16 810 34 1110 20 337 52 517 101 562 38 35 98 59 203 83 214 48 351 145
471 332 60 94 144 255 179 347 16 43 35 76 48 83 12 7 76 15 142 18 169 9 525
11 525 3z m8350 -90 c58 -60 96 -109 118 -152 18 -35 29 -67 26 -70 -4 -3 -11
2 -18 12 -62 101 -102 154 -165 220 -40 42 -68 77 -61 77 7 0 52 -39 100 -87z
m-4825 -78 c105 -28 253 -109 479 -259 364 -243 423 -263 756 -253 210 7 306
21 533 78 88 22 161 39 162 37 10 -10 35 -118 35 -148 0 -74 -46 -100 -284
-160 -194 -48 -308 -64 -476 -63 -309 0 -520 74 -854 297 -328 219 -508 277
-725 231 -94 -20 -161 -43 -347 -120 -87 -36 -185 -73 -217 -82 -59 -17 -60
-17 -78 5 -10 13 -23 47 -30 77 -10 46 -10 57 4 78 31 48 531 283 632 297 94
13 340 4 410 -15z m2785 -44 c0 -17 -4 -33 -10 -36 -6 -4 -10 8 -10 29 0 20 5
36 10 36 6 0 10 -13 10 -29z m-4081 -166 c36 -72 40 -102 10 -66 -26 32 -85
139 -93 171 -6 23 -5 23 23 -9 16 -18 43 -61 60 -96z m-2305 31 c-3 -7 -31
-35 -62 -62 -60 -51 -55 -38 12 34 40 42 60 53 50 28z m9400 -25 c8 -12 -34
-22 -63 -14 -17 4 -19 8 -9 14 17 11 65 11 72 0z m449 -14 c-29 -7 -57 -7 -85
0 -40 10 -37 11 42 11 79 0 82 -1 43 -11z m-588 -17 c-4 -6 -31 -29 -61 -51
-30 -22 -93 -73 -140 -114 -88 -78 -125 -98 -80 -44 38 44 121 114 204 170 76
50 88 57 77 39z m-680 -208 c-38 -132 -155 -291 -252 -345 -52 -29 -38 -4 32
58 128 112 201 250 211 398 8 103 18 115 22 24 2 -52 -3 -99 -13 -135z m1478
196 c-16 -8 -32 -8 -55 0 -32 9 -31 10 22 10 46 1 52 -1 33 -10z m136 -17 c20
-13 -5 -24 -37 -16 -20 5 -23 8 -11 16 18 11 30 11 48 0z m-3934 -51 c52 -32
156 -193 137 -212 -8 -8 -201 15 -237 28 -14 6 -45 121 -45 168 0 14 8 30 18
36 23 14 89 4 127 -20z m-6415 -70 c-41 -105 -108 -195 -75 -101 24 69 81 168
91 158 3 -2 -5 -28 -16 -57z m10622 17 c106 -55 172 -97 164 -105 -7 -6 -237
106 -271 132 -20 15 -20 15 2 16 12 0 59 -19 105 -43z m419 -28 c302 -172 403
-259 439 -377 52 -166 75 -466 75 -982 0 -412 0 -415 -23 -473 -30 -74 -78
-137 -122 -160 -51 -27 -105 -17 -255 46 -154 65 -670 315 -664 322 3 2 46 20
96 39 183 70 288 139 433 286 140 142 202 249 236 412 19 90 19 282 0 379 -34
175 -128 341 -273 485 -121 120 -115 122 58 23z m-4335 20 c17 -19 187 -163
284 -242 47 -38 4 -17 -73 35 -64 44 -259 227 -241 228 6 0 19 -10 30 -21z
m3268 -9 c175 -26 379 -78 499 -128 228 -94 393 -261 442 -447 17 -68 19 -189
4 -255 -19 -83 -69 -169 -139 -244 -151 -159 -346 -225 -623 -213 -191 8 -277
37 -417 135 -180 128 -287 250 -334 382 -58 160 -126 458 -126 549 0 42 4 51
43 88 54 53 115 90 202 125 63 24 83 27 190 28 70 0 178 -9 259 -20z m1040
-319 c57 -95 57 -126 -1 -49 -51 68 -133 199 -133 213 1 19 86 -85 134 -164z
m-1914 89 c0 -27 -4 -50 -10 -50 -5 0 -10 23 -10 50 0 28 5 50 10 50 6 0 10
-22 10 -50z m-6203 -6 c3 -9 -2 -41 -11 -70 -20 -64 -115 -258 -123 -250 -8 7
16 173 34 239 21 77 82 126 100 81z m4281 -78 c26 -14 56 -31 67 -40 18 -14
19 -15 2 -16 -22 0 -123 48 -138 67 -18 21 16 16 69 -11z m-4558 -41 c0 -24
-4 -47 -10 -50 -6 -4 -10 15 -10 50 0 35 4 54 10 50 6 -3 10 -26 10 -50z
m9540 -85 c134 -176 260 -398 260 -457 0 -19 -7 -47 -15 -63 -17 -33 -80 -80
-107 -80 -42 0 -137 146 -167 259 -23 87 -61 334 -61 400 0 39 2 42 16 30 9
-8 43 -48 74 -89z m-3030 51 c0 -17 -4 -33 -10 -36 -6 -4 -10 8 -10 29 0 20 5
36 10 36 6 0 10 -13 10 -29z m-9263 -198 c-1 -43 -3 -10 -3 72 0 83 2 118 3
78 2 -40 2 -107 0 -150z m7617 168 c3 -5 -1 -12 -10 -15 -21 -8 -65 4 -58 15
7 12 61 12 68 0z m121 -30 c3 -5 0 -13 -5 -16 -16 -10 -62 4 -55 15 8 13 52
13 60 1z m200 -41 c-8 -13 -95 -13 -115 0 -10 7 5 10 53 10 43 0 66 -4 62 -10z
m455 0 c-8 -5 -26 -10 -40 -10 -14 0 -32 5 -40 10 -11 7 1 10 40 10 39 0 51
-3 40 -10z m2830 -25 c0 -19 -4 -35 -10 -35 -5 0 -10 16 -10 35 0 19 5 35 10
35 6 0 10 -16 10 -35z m-8504 -26 c-8 -57 -53 -209 -67 -223 -15 -16 -10 30
11 116 22 84 49 158 57 158 3 0 3 -23 -1 -51z m5484 21 c10 -7 -11 -10 -70
-10 -59 0 -80 3 -70 10 8 5 40 10 70 10 30 0 62 -5 70 -10z m1135 -157 c56
-175 116 -297 192 -388 57 -70 57 -70 15 -36 -87 68 -177 226 -226 392 -25 86
-43 189 -33 179 4 -4 27 -70 52 -147z m1914 -20 c-1 -57 -2 -62 -8 -31 -7 34
-4 98 5 98 2 0 3 -30 3 -67z m-11160 -272 c126 -281 217 -401 431 -568 36 -28
74 -61 85 -74 37 -42 -80 29 -158 96 -99 85 -162 156 -235 266 -78 117 -191
341 -199 394 -9 62 9 35 76 -114z m2517 70 c-9 -16 -21 -33 -27 -37 -17 -10
-3 53 19 85 16 26 17 26 20 4 2 -12 -4 -35 -12 -52z m8611 10 c-6 -52 -55
-161 -107 -236 -70 -101 -264 -263 -349 -290 -40 -12 -16 10 87 84 170 120
288 261 327 391 34 112 52 134 42 51z m-8673 -133 c-38 -74 -165 -245 -222
-298 -19 -18 184 288 211 317 27 31 32 22 11 -19z m4159 -278 c206 -234 269
-348 387 -695 125 -370 238 -573 556 -1003 193 -261 277 -396 310 -496 14 -44
36 -100 49 -126 46 -90 146 -229 229 -318 94 -100 126 -154 156 -264 50 -183
53 -540 5 -655 -30 -72 -79 -90 -145 -54 -52 27 -59 67 -70 361 -11 314 -19
346 -140 577 -106 202 -269 436 -568 815 -365 462 -470 641 -583 993 -105 329
-148 427 -239 550 -87 118 -94 141 -98 320 l-4 160 22 -20 c13 -11 72 -76 133
-145z m-4463 -72 c0 -29 -215 -200 -318 -252 -55 -28 -46 -12 19 35 170 122
260 192 269 209 12 22 30 27 30 8z m8300 -98 c0 -6 -33 -10 -79 -10 -44 0 -83
5 -86 10 -4 6 25 10 79 10 51 0 86 -4 86 -10z m-9722 -230 c41 -25 42 -41 1
-30 -32 9 -79 36 -79 45 0 12 48 3 78 -15z m852 -20 c0 -5 -13 -10 -29 -10
-17 0 -33 5 -36 10 -4 6 8 10 29 10 20 0 36 -4 36 -10z m-675 -30 c4 -6 -12
-10 -40 -10 -28 0 -44 4 -40 10 3 6 21 10 40 10 19 0 37 -4 40 -10z m540 0 c4
-6 -12 -10 -39 -10 -25 0 -46 5 -46 10 0 6 18 10 39 10 22 0 43 -4 46 -10z
m-247 -42 c-38 -7 -78 -7 -115 0 -54 9 -51 9 57 9 108 0 111 0 58 -9z m7773
-379 c-47 -5 -116 -5 -160 0 -68 7 -59 8 84 8 148 0 154 0 76 -8z m-376 -18
c3 -5 0 -13 -5 -16 -15 -9 -60 3 -60 15 0 13 57 13 65 1z m669 0 c3 -5 -1 -12
-10 -15 -21 -8 -65 4 -58 15 7 12 61 12 68 0z m-789 -31 c-8 -14 -126 -73
-132 -67 -5 5 72 60 97 70 25 9 42 8 35 -3z m943 -17 c34 -16 43 -33 16 -33
-26 0 -114 42 -108 51 6 11 46 3 92 -18z m-1128 -81 c0 -4 -46 -50 -102 -102
-101 -92 -92 -77 27 48 56 59 75 72 75 54z m1356 -38 c183 -109 421 -448 441
-628 3 -28 3 -48 -1 -45 -4 4 -31 65 -60 137 -88 219 -205 381 -345 479 -93
66 -125 93 -109 93 8 0 41 -16 74 -36z m-520 -10 c55 -8 134 -24 174 -35 220
-61 422 -234 531 -454 74 -150 92 -230 92 -405 0 -129 -3 -155 -27 -233 -74
-246 -206 -402 -440 -523 -111 -58 -192 -73 -394 -74 -302 0 -461 36 -620 140
-159 106 -295 248 -360 376 -47 93 -63 165 -69 314 -7 174 8 245 81 394 165
335 345 489 601 516 101 11 299 3 431 -16z m-1085 -251 c-21 -43 -51 -74 -51
-54 0 16 29 72 48 94 24 27 26 4 3 -40z m-182 -410 c-6 -24 -16 -46 -22 -50
-14 -8 -3 94 14 132 l13 30 4 -34 c2 -19 -2 -54 -9 -78z m2260 -230 c0 -64 -3
-91 -9 -78 -15 35 -10 175 6 175 2 0 4 -44 3 -97z m-38 -284 c-5 -20 -16 -48
-26 -60 l-17 -24 6 25 c3 14 11 54 18 90 10 59 12 62 19 36 5 -17 5 -46 0 -67z
m-56 -161 c-17 -56 -97 -165 -205 -281 -69 -74 -160 -148 -160 -130 0 4 44 51
98 104 99 97 158 170 221 273 36 57 58 74 46 34z m-465 -480 c-20 -16 -60 -25
-60 -13 0 2 17 16 37 30 42 28 62 14 23 -17z m-805 -68 c-8 -13 -45 -13 -65 0
-11 7 -3 10 28 10 26 0 41 -4 37 -10z m605 0 c0 -5 -13 -10 -29 -10 -17 0 -33
5 -36 10 -4 6 8 10 29 10 20 0 36 -4 36 -10z m-267 -37 c-40 -2 -106 -2 -145
0 -40 1 -8 3 72 3 80 0 112 -2 73 -3z"/>
</g>
</svg>
